<?xml version="1.0" encoding="UTF-8" standalone="no" ?>
<svg xmlns:svg="http://www.w3.org/2000/svg" xmlns="http://www.w3.org/2000/svg" viewBox="0 0 6.3499998 6.3499998">
   <g id="layer1" transform="translate(0,-290.65)">
      <path style="display:inline;fill:#63cf91;fill-opacity:1;stroke:none;stroke-width:0.31750003;stroke-miterlimit:4;stroke-dasharray:none;stroke-opacity:1" d="m 4.5132777,293.82635 a 1.3229166,1.3229166 0 0 1 -1.3229164,1.32291 1.3229166,1.3229166 0 0 1 -1.3229168,-1.32291 1.3229166,1.3229166 0 0 1 1.3229168,-1.32292 1.3229166,1.3229166 0 0 1 1.3229164,1.32292 z" />
      <path style="display:inline;fill:none;stroke:#63cf91;stroke-width:0.31458628;stroke-miterlimit:4;stroke-dasharray:none;stroke-opacity:1" d="m 6.2028286,293.83161 a 2.9988896,2.9988896 0 0 1 -2.9988897,2.99889 2.9988896,2.9988896 0 0 1 -2.99888962,-2.99889 2.9988896,2.9988896 0 0 1 2.99888962,-2.99889 2.9988896,2.9988896 0 0 1 2.9988897,2.99889 z" />
   </g>
</svg>